<mxfile host="Electron" modified="2023-10-18T14:15:48.276Z" agent="Mozilla/5.0 (Windows NT 10.0; Win64; x64) AppleWebKit/537.36 (KHTML, like Gecko) draw.io/22.0.2 Chrome/114.0.5735.289 Electron/25.8.4 Safari/537.36" etag="4fsR87XWG4NmLqba85Zu" version="22.0.2" type="device">
  <diagram name="PÃ¡gina-1" id="VAQ10A4tXqmgQnD5jMA0">
    <mxGraphModel dx="1418" dy="820" grid="1" gridSize="10" guides="1" tooltips="1" connect="1" arrows="1" fold="1" page="1" pageScale="1" pageWidth="3300" pageHeight="4681" math="0" shadow="0">
      <root>
        <mxCell id="0" />
        <mxCell id="1" parent="0" />
        <mxCell id="d9VpfmpPb386zwmzBPsz-1" value="front" style="whiteSpace=wrap;html=1;aspect=fixed;" vertex="1" parent="1">
          <mxGeometry x="170" y="230" width="80" height="80" as="geometry" />
        </mxCell>
        <mxCell id="d9VpfmpPb386zwmzBPsz-5" style="edgeStyle=orthogonalEdgeStyle;rounded=0;orthogonalLoop=1;jettySize=auto;html=1;exitX=0;exitY=0.75;exitDx=0;exitDy=0;entryX=1;entryY=0.75;entryDx=0;entryDy=0;" edge="1" parent="1" source="d9VpfmpPb386zwmzBPsz-2" target="d9VpfmpPb386zwmzBPsz-1">
          <mxGeometry relative="1" as="geometry" />
        </mxCell>
        <mxCell id="d9VpfmpPb386zwmzBPsz-6" style="edgeStyle=orthogonalEdgeStyle;rounded=0;orthogonalLoop=1;jettySize=auto;html=1;exitX=1;exitY=0.25;exitDx=0;exitDy=0;entryX=0;entryY=0.25;entryDx=0;entryDy=0;" edge="1" parent="1" source="d9VpfmpPb386zwmzBPsz-2" target="d9VpfmpPb386zwmzBPsz-3">
          <mxGeometry relative="1" as="geometry" />
        </mxCell>
        <mxCell id="d9VpfmpPb386zwmzBPsz-2" value="back" style="whiteSpace=wrap;html=1;aspect=fixed;" vertex="1" parent="1">
          <mxGeometry x="400" y="230" width="80" height="80" as="geometry" />
        </mxCell>
        <mxCell id="d9VpfmpPb386zwmzBPsz-7" style="edgeStyle=orthogonalEdgeStyle;rounded=0;orthogonalLoop=1;jettySize=auto;html=1;exitX=0;exitY=0.75;exitDx=0;exitDy=0;entryX=1;entryY=0.75;entryDx=0;entryDy=0;" edge="1" parent="1" source="d9VpfmpPb386zwmzBPsz-3" target="d9VpfmpPb386zwmzBPsz-2">
          <mxGeometry relative="1" as="geometry" />
        </mxCell>
        <mxCell id="d9VpfmpPb386zwmzBPsz-3" value="BD" style="whiteSpace=wrap;html=1;aspect=fixed;" vertex="1" parent="1">
          <mxGeometry x="600" y="230" width="80" height="80" as="geometry" />
        </mxCell>
        <mxCell id="d9VpfmpPb386zwmzBPsz-4" value="" style="endArrow=classic;html=1;rounded=0;exitX=1;exitY=0.25;exitDx=0;exitDy=0;entryX=0;entryY=0.25;entryDx=0;entryDy=0;" edge="1" parent="1" source="d9VpfmpPb386zwmzBPsz-1" target="d9VpfmpPb386zwmzBPsz-2">
          <mxGeometry width="50" height="50" relative="1" as="geometry">
            <mxPoint x="700" y="450" as="sourcePoint" />
            <mxPoint x="750" y="400" as="targetPoint" />
          </mxGeometry>
        </mxCell>
        <mxCell id="d9VpfmpPb386zwmzBPsz-11" value="Model" style="text;html=1;strokeColor=none;fillColor=none;align=center;verticalAlign=middle;whiteSpace=wrap;rounded=0;" vertex="1" parent="1">
          <mxGeometry x="515" y="300" width="60" height="30" as="geometry" />
        </mxCell>
        <mxCell id="d9VpfmpPb386zwmzBPsz-14" value="JSON" style="text;html=1;align=center;verticalAlign=middle;resizable=0;points=[];autosize=1;strokeColor=none;fillColor=none;" vertex="1" parent="1">
          <mxGeometry x="290" y="220" width="60" height="30" as="geometry" />
        </mxCell>
        <mxCell id="d9VpfmpPb386zwmzBPsz-15" value="DAO" style="text;html=1;align=center;verticalAlign=middle;resizable=0;points=[];autosize=1;strokeColor=none;fillColor=none;" vertex="1" parent="1">
          <mxGeometry x="520" y="220" width="50" height="30" as="geometry" />
        </mxCell>
        <mxCell id="d9VpfmpPb386zwmzBPsz-17" value="JSON" style="text;html=1;strokeColor=none;fillColor=none;align=center;verticalAlign=middle;whiteSpace=wrap;rounded=0;" vertex="1" parent="1">
          <mxGeometry x="290" y="300" width="60" height="30" as="geometry" />
        </mxCell>
        <mxCell id="d9VpfmpPb386zwmzBPsz-18" value="JSON / ModelDAO" style="text;html=1;strokeColor=none;fillColor=none;align=center;verticalAlign=middle;whiteSpace=wrap;rounded=0;" vertex="1" parent="1">
          <mxGeometry x="375" y="310" width="140" height="30" as="geometry" />
        </mxCell>
        <mxCell id="d9VpfmpPb386zwmzBPsz-19" value="JSON" style="text;html=1;align=center;verticalAlign=middle;resizable=0;points=[];autosize=1;strokeColor=none;fillColor=none;" vertex="1" parent="1">
          <mxGeometry x="410" y="200" width="60" height="30" as="geometry" />
        </mxCell>
      </root>
    </mxGraphModel>
  </diagram>
</mxfile>
